<!-- icon666.com - MILLIONS OF FREE VECTOR ICONS --><svg id="Capa_1" enable-background="new 0 0 512 512" viewBox="-10 -10 532 532" xmlns="http://www.w3.org/2000/svg">
    <defs>
        <linearGradient id="backgroundGradient" x1="0%" y1="0%" x2="100%" y2="100%">
          <stop offset="0%" style="stop-color:#61bfef; stop-opacity:1" />
          <stop offset="100%" style="stop-color:#0295fe; stop-opacity:1" />
        </linearGradient>
      </defs>
        <!-- Background rectangle with gradient -->
  <rect x="-150" y="-20" width="800" height="800" fill="url(#backgroundGradient)"/>
  
      
    
    <g><path fill="#fff" d="m437.02 74.98c-48.353-48.351-112.64-74.98-181.02-74.98-58.157 0-112.971 19.008-158.516 54.968-44.172 34.877-76.036 83.969-89.723 138.232-1.013 4.017 1.422 8.093 5.438 9.106 4.015 1.014 8.094-1.423 9.106-5.438 27.008-107.081 123.107-181.868 233.695-181.868 132.888 0 241 108.112 241 241s-108.112 241-241 241-241-108.112-241-241c0-8.118.408-16.305 1.212-24.333.413-4.121-2.593-7.798-6.714-8.211-4.121-.408-7.798 2.593-8.21 6.715-.855 8.523-1.288 17.214-1.288 25.829 0 68.38 26.629 132.668 74.98 181.02 48.353 48.351 112.64 74.98 181.02 74.98s132.667-26.629 181.02-74.98c48.351-48.352 74.98-112.64 74.98-181.02s-26.629-132.668-74.98-181.02z"></path><path fill="#fff" d="m61.081 327.721c5.639 22.414 19.32 41.853 38.525 54.732 4.41 2.958 9.027 5.492 13.787 7.626 28.241 30.281 66.11 51.067 106.927 58.523 14.182 8.704 30.855 13.73 48.68 13.73 25.49 0 48.622-10.274 65.484-26.893 38.102-16.733 70.519-45.8 91.346-81.946 9.541-6.042 18.083-13.876 25.097-23.335 5.795-7.816 10.307-16.42 13.409-25.57 1.33-3.923-.772-8.182-4.695-9.511-3.926-1.336-8.181.772-9.511 4.694-2.601 7.673-6.387 14.891-11.252 21.453-18.164 24.497-48.502 36.063-78.213 30.162-1.099-5.737-2.736-11.339-4.876-16.745 23.959 8.641 55.553-.337 71.04-22.351 20.801-28.057 14.899-67.806-13.157-88.607-12.607-9.348-28.146-13.669-43.754-12.173-17.501 1.678-23.286 28.218-25 40.05-10.823 5.078-34.537 18.324-31.058 35.559.36 1.784.803 3.541 1.31 5.273-3.525-.943-9.98-2.109-15.921-1.886-1.951-8.422.353-19.765 6.847-28.39 4.878-6.579 12.69-13.125 22.592-18.931 1.76-1.031 3.023-2.735 3.5-4.72 2.68-11.164 6.673-20.542 11.55-27.119 6.379-8.604 15.168-13.849 24.748-14.767 19.307-1.857 38.528 3.493 54.119 15.054 17.585 13.037 28.968 33.049 31.231 54.903.427 4.12 4.119 7.123 8.232 6.688 4.12-.427 7.114-4.112 6.688-8.232-1.934-18.676-9.464-36.224-21.304-50.388-.01-.052-.014-.103-.025-.154-8.298-38.266-27.737-72.825-56.236-100.04-3.337-19.341-12.749-37.788-28.155-52.199-16.889-15.797-38.917-24.731-62.025-25.156-13.911-.223-27.242 5.64-37.5 16.606-1.845 1.973-3.606 4.157-5.297 6.507-29.121-.451-59.804 6.154-86.432 19.033-12.919-4.793-26.356-4.505-38.148.891-21.016 9.617-37.644 26.604-46.82 47.83-6.017 13.918-8.487 28.767-7.439 43.493-12.757 26.523-19.237 54.972-19.237 84.585 0 13.363 1.369 26.717 4.054 39.708-4.649 10.315-5.778 21.408-3.111 32.013zm14.547-3.659c-2.348-9.334-.354-19.373 5.612-28.269 4.56-6.799 12.055-13.707 21.673-19.977 1.708-1.113 2.89-2.875 3.272-4.879 2.544-11.99 5.683-21.771 12.016-30.046 4.101 2.924 8.448 5.547 13.041 7.804-8.211 9.292-10.876 26-11.722 34.721-10.572 5.583-33.634 19.935-29.345 36.985 3.825 15.207 13.109 28.396 26.142 37.136 10.655 7.146 22.977 10.701 35.288 10.701 8.254-.001 16.503-1.601 24.237-4.789-.109 1.84-.184 3.686-.184 5.54 0 3.473.197 6.9.568 10.276-22.944 7.58-48.118 4.242-68.265-9.27-16.118-10.809-27.601-27.123-32.333-45.933zm86.387-66.342c1.476.259 3.656.918 5.439 1.539 1.07 6.69 2.857 13.297 5.395 19.7 4.951 12.493 12.589 23.798 22.254 33.038-7.591 9.832-13.095 21.006-16.266 32.886-16.216 11.049-37.778 11.188-54.164.198-9.947-6.671-17.032-16.735-19.951-28.339-.988-3.927 7.485-11.551 17.353-17.526 2.57 7.603 6.596 16.584 12.079 20.261 3.634 2.438 7.818 3.702 12.097 3.702 1.415 0 2.84-.139 4.26-.418 5.713-1.126 10.645-4.409 13.888-9.245 3.243-4.835 4.41-10.645 3.284-16.356-1.126-5.713-4.409-10.645-9.245-13.888-5.486-3.679-15.329-3.996-23.341-3.487 1.772-11.396 5.612-22.127 9.642-22.705 6.604-.701 8.231-.76 17.276.64zm19.243-95.907c-1.494 3.428-5.498 5.008-8.929 3.525-3.441-1.488-5.03-5.497-3.555-8.911.873-1.731 5.415-5.046 10.958-8.205 1.492 6.185 2.187 11.752 1.526 13.591zm-26.24-11.364c-4.769 11.031.326 23.888 11.359 28.658 2.809 1.214 5.736 1.789 8.619 1.789 8.436 0 16.484-4.926 20.039-13.147 2.62-6.06 1.144-15.792-.811-23.576 11.533-.318 22.782 1.506 24.078 5.343 3.207 9.501 3.352 19.792.485 29.341-6.426.852-12.279 2.294-17.474 4.352-13.732 5.36-25.108 16.551-29.615 30.083-6.311-.093-12.478-1.404-18.388-3.959-11.853-5.123-21-14.556-25.758-26.56-4.758-12.005-4.556-25.143.568-36.995 4.752-10.994 13.361-19.79 24.241-24.769 3.685-1.676 12.72 5.265 20.387 13.879-7.011 3.91-15.11 9.501-17.73 15.561zm110.576 23.418c9.957-3.948 20.19-3.769 28.814.502 14.424 7.144 26.422 18.734 34.083 32.849-3.274 5.375-6.063 11.623-8.339 18.69-.487-1.575-1.031-3.138-1.643-4.681-5.783-14.59-16.706-26.457-30.757-33.415-15.753-7.805-34.666 11.696-42.36 20.845-11.875-1.389-39.008-2.64-45.14 13.836-5.468 14.696-5.295 30.824.487 45.413 4.036 10.183 10.453 18.888 18.586 25.577-5.074 1.788-9.758 4.345-13.906 7.626-8.085-7.741-14.477-17.211-18.625-27.676-7.151-18.043-7.364-37.991-.6-56.171 3.355-9.019 10.688-16.159 20.646-20.106 7.612-3.018 17.691-4.468 29.179-4.172 2.043.03 4.01-.73 5.46-2.164 8.166-8.076 16.505-13.937 24.115-16.953zm-12.688 53.743c5.429 3.318 9.857 6.763 10.69 8.531.662 1.684.631 3.523-.087 5.185-.72 1.666-2.047 2.952-3.736 3.622-1.688.668-3.536.64-5.201-.08-1.667-.721-2.953-2.047-3.612-3.708-.607-1.842.261-7.396 1.946-13.55zm-116.451 67.161c6.351-.344 11.954-.016 13.643.969 1.499 1.012 2.517 2.545 2.867 4.32.351 1.781-.013 3.593-1.024 5.101-1.011 1.509-2.549 2.532-4.331 2.883-1.781.352-3.593-.012-5.077-1.007-1.545-1.173-3.978-6.241-6.078-12.266zm15.079 103.477c9.247 0 18.532-1.393 27.553-4.17 3.335 11.936 8.985 22.916 16.438 32.418-18.625-6.596-35.978-16.215-51.539-28.564 2.509.204 5.026.316 7.548.316zm39.124-29.258c0-19.409 7.152-38.032 20.138-52.439 6.443-7.148 15.891-11.085 26.603-11.085 8.188 0 18.1 2.377 28.663 6.872 1.877.801 3.999.798 5.875.001 10.565-4.497 20.477-6.874 28.664-6.874 10.711 0 20.159 3.937 26.602 11.085 12.987 14.407 20.14 33.03 20.14 52.44 0 43.198-35.144 78.342-78.342 78.342-43.199 0-78.343-35.144-78.343-78.342zm185.413-1.069c8.3 0 16.495-1.11 24.387-3.252-12.897 17.059-28.776 31.804-46.701 43.399 5.43-11.682 8.986-26.745 8.537-41.173 4.602.683 9.204 1.026 13.777 1.026zm-29.348-100.459c2.208 7.716 5.806 16.876 11.109 20.809 3.796 2.814 8.296 4.293 12.937 4.293 1.077 0 2.162-.08 3.247-.241 5.76-.854 10.841-3.902 14.308-8.579 3.468-4.677 4.907-10.424 4.052-16.184s-3.902-10.841-8.579-14.309c-5.303-3.932-15.114-4.713-23.139-4.584 2.319-11.302 6.659-21.839 10.69-22.225 1.545-.148 3.089-.222 4.628-.222 10.32 0 20.387 3.304 28.76 9.512 21.412 15.876 25.917 46.213 10.041 67.625-7.69 10.373-18.96 17.13-31.732 19.026-12.771 1.896-25.519-1.294-35.892-8.985-9.621-7.134-16.223-17.521-18.591-29.248-.801-3.97 8.023-11.186 18.161-16.688zm14.576-3.757c6.353-.025 11.946.549 13.58 1.606 1.45 1.081 2.395 2.661 2.66 4.451.267 1.796-.182 3.588-1.264 5.047s-2.666 2.409-4.462 2.676c-1.798.263-3.589-.182-5.024-1.246-1.486-1.244-3.677-6.419-5.49-12.534zm-67.253-10.523c-8.815 11.889-12.238 25.819-9.694 39.29-4.923 1.14-10.043 2.745-15.352 4.856-7.797-3.1-15.195-5.132-22.137-6.131-14.803-4.064-26.532-14.566-32.181-28.818-4.413-11.134-4.545-23.441-.373-34.655 1.412-3.796 12.714-5.273 24.23-4.602-2.193 7.721-3.967 17.402-1.534 23.539 2.146 5.413 6.27 9.666 11.614 11.977 2.776 1.2 5.709 1.802 8.645 1.802 2.716 0 5.436-.515 8.036-1.546 5.413-2.146 9.667-6.27 11.977-11.614s2.401-11.269.256-16.682c-2.434-6.14-10.364-11.98-17.253-16.103 7.92-8.383 17.166-15.045 20.813-13.241 10.721 5.31 19.056 14.366 23.47 25.501 1.616 4.076 2.656 8.307 3.124 12.611-5.504 4.379-10.069 8.998-13.641 13.816zm132.69-56.906c-14.724-9.56-31.755-14.735-49.231-15.019 8.757-13.453 13.678-28.628 14.798-44.019 15.212 17.4 26.856 37.376 34.433 59.038zm-126.003-144.224c19.393.356 37.879 7.854 52.055 21.113 31.547 29.51 33.206 79.184 3.697 110.731-.009.01-.016.02-.025.03-6.561 2.22-12.633 5.885-17.928 10.821-2.161-3.415-4.537-6.686-7.117-9.788 5.189-3.054 9.922-6.827 14.115-11.31 19.854-21.226 22.75-53.102 7.042-77.515-2.241-3.484-6.883-4.491-10.365-2.25-3.483 2.241-4.49 6.882-2.249 10.365 11.984 18.628 9.771 42.952-5.383 59.152-4.079 4.361-8.814 7.851-14.096 10.424-5.89-5.074-12.41-9.429-19.415-12.898-10.848-5.372-23.267-6.34-35.496-2.869-.577-7.784-2.111-15.466-4.633-22.934-.947-2.806-2.162-5.484-3.597-8.033 4.047-2.814 9.211-5.249 13.714-7.057 1.318 7.91 3.85 17.398 8.664 21.901 4.196 3.925 9.545 5.868 14.883 5.868 5.827 0 11.641-2.316 15.927-6.897 8.21-8.778 7.749-22.6-1.029-30.81-4.822-4.51-14.48-6.402-22.468-7.187 3.577-10.924 9.06-20.866 13.105-20.866.015 0 .03 0 .045.001 5.408.099 10.713 1.09 15.767 2.943 3.886 1.425 8.198-.57 9.624-4.458 1.427-3.889-.569-8.197-4.458-9.624-6.625-2.431-13.576-3.729-20.657-3.859-.111-.002-.219-.003-.329-.003-17.37 0-26.048 25.497-29.072 36.973-5.577 1.909-15.344 5.741-23.045 11.309-3.759-3.473-8.118-6.447-12.996-8.818 5.376-4.641 12.487-8.973 20.876-12.682 1.865-.825 3.314-2.374 4.013-4.29 3.933-10.788 8.968-19.65 14.561-25.63 7.319-7.821 16.655-12.045 26.27-11.853zm-14.778 65.868c6.326.68 11.802 1.902 13.311 3.146 2.724 2.562 2.863 6.862.307 9.595-2.561 2.738-6.872 2.883-9.587.342-1.338-1.406-2.926-6.8-4.031-13.083zm-39.02-36.493c-11.007 5.245-21.011 11.926-27.856 19.803-5.563-1.16-11.616-1.855-18.152-2.048-4.183-4.192-8.395-7.825-12.611-10.895 19.503-7.922 40.033-12.292 61.256-13.025-.911 1.988-1.799 4.026-2.637 6.165zm-146.353 52.446c7.701-17.814 21.656-32.071 39.293-40.143 8.752-4.004 18.987-3.87 28.818.382 7.515 3.248 15.669 9.362 23.582 17.683 1.406 1.478 3.353 2.319 5.393 2.331 11.48.063 21.521 1.815 29.038 5.064 9.832 4.251 16.941 11.613 20.019 20.732 2.688 7.96 4.062 16.205 4.112 24.551-5.34 3.136-10.713 7.157-16.074 12.042 1.953-10.554 1.216-21.529-2.25-31.797-5.623-16.659-32.785-16.241-44.693-15.213-7.412-9.382-25.717-29.451-41.702-22.136-14.258 6.524-25.54 18.051-31.768 32.456-6.714 15.529-6.978 32.745-.744 48.474s18.22 28.089 33.75 34.802c6.475 2.8 13.393 4.476 20.388 5.01-.888 4.945-1.359 9.939-1.44 14.938-7.271-.698-16.525-2.469-24.899-6.178-19.174-8.289-33.985-23.581-41.705-43.059-7.721-19.478-7.407-40.764.882-59.939zm-15.626 63.299c4.124 11.679 12.451 24.955 21.781 34.047-6.597 8.169-11.747 20.269-14.654 33.797-6.04 4.146-11.247 8.489-15.598 12.99-.887-7.285-1.346-14.642-1.346-22.005-.001-20.302 3.304-40.006 9.817-58.829z"></path><path fill="#fff" d="m316.061 326.593c-11.771-13.062-36.537-1.898-47.061 3.771-10.525-5.669-35.288-16.829-47.062-3.771-10.499 11.646-16.28 26.703-16.28 42.396 0 10.587 2.666 21.067 7.709 30.308 1.984 3.636 6.541 4.977 10.177 2.99 3.636-1.984 4.975-6.54 2.99-10.176-3.844-7.043-5.876-15.039-5.876-23.122 0-11.978 4.412-23.467 12.422-32.354 2.714-3.009 13.764-.219 24.221 4.649-4.884 6.369-10.099 14.716-10.099 21.318 0 12.02 9.778 21.798 21.798 21.798s21.798-9.778 21.798-21.798c0-6.602-5.215-14.948-10.099-21.318 10.46-4.868 21.509-7.659 24.22-4.65 8.011 8.887 12.422 20.377 12.422 32.354 0 26.655-21.686 48.342-48.342 48.342-7.059 0-13.859-1.485-20.212-4.414-3.762-1.734-8.217-.09-9.951 3.672s-.09 8.217 3.671 9.951c8.336 3.843 17.25 5.791 26.492 5.791 34.927 0 63.342-28.415 63.342-63.342.001-15.692-5.781-30.749-16.28-42.395zm-47.061 42.808c-3.749 0-6.798-3.05-6.798-6.769.114-1.936 2.966-6.777 6.798-11.875 3.826 5.089 6.675 9.923 6.798 11.865-.01 3.74-3.056 6.779-6.798 6.779z"></path></g></svg>